<?xml version="1.0" encoding="utf-8"?>
<!-- Generator: Adobe Illustrator 24.1.0, SVG Export Plug-In . SVG Version: 6.00 Build 0)  -->
<svg version="1.1" id="Ebene_1" xmlns="http://www.w3.org/2000/svg" xmlns:xlink="http://www.w3.org/1999/xlink" x="0px" y="0px"
	 viewBox="0 0 558.8 275.5" style="enable-background:new 0 0 558.8 275.5;" xml:space="preserve">
<style type="text/css">
	.st0{fill:#C6C6C5;}
	.st1{fill:#ECA154;}
	.st2{fill:#00B140;}
</style>
<g>
	<path class="st0" d="M209.2,76.9c17.7-9.7,41.5-18.2,61.4-18.2c14.3,0,26.7,5.6,32.6,18.2h72.4c-2.5-49.8-44.9-69.4-86.5-69.4
		c-28.2,0-51.9,4.4-74.4,11.5l-6.6,57.9H209.2z"/>
	<path class="st0" d="M262.4,220.9c12.6-8.7,26.2-17.7,39.3-27.4h-90.5c-13.6,9.7-28.7,20.4-45.5,32.2l-8.1,44.8h185.9l10-48.9
		h-91.1V220.9z"/>
</g>
<path class="st1" d="M51.9,99.3h25.2l12.3,75.1H69.1l-2-16H37.9l-8.9,16H7.2L51.9,99.3z M61.9,114.8h-0.2l-15.9,29.4h19.4
	L61.9,114.8z"/>
<path class="st1" d="M121.5,99.3h25.1l15.4,52.1h0.2l10.6-52.1h18.9l-15.9,75.1h-25l-15.7-52h-0.2l-10.4,52h-18.9L121.5,99.3z"/>
<path class="st1" d="M236.7,99.3h25.2l12.3,75.1h-20.2l-2-16h-29.2l-8.9,16H192L236.7,99.3z M246.7,114.8h-0.2l-15.9,29.4h19.4
	L246.7,114.8z"/>
<path class="st2" d="M305.2,99.3h20c16.5,0,33,1.7,33,20.7c0,18.7-15.3,28.2-33.4,28.2h-10.2l-5.6,26.3h-20L305.2,99.3z M317.7,134
	h5.4c8,0,15.2-2.8,15.2-11.7c0-7.2-5-8.7-10.3-8.7H322L317.7,134z"/>
<path class="st2" d="M380.9,99.3h52.9l-2.9,14.2h-33l-3.4,15.5h31.3l-3.1,14.2h-31.2l-3.7,17H422l-2.9,14.2h-54.4L380.9,99.3z"/>
<path class="st2" d="M455,99.3h25.1l15.4,52.1h0.2l10.6-52.1h18.9l-15.9,75.1h-25l-15.7-52h-0.2l-10.4,52h-18.9L455,99.3z"/>
<g>
	<path class="st2" d="M537.1,99.6c0-4.1,3.4-7.5,7.5-7.5s7.5,3.4,7.5,7.5s-3.4,7.5-7.5,7.5S537.1,103.7,537.1,99.6z M550.3,99.6
		c0-3.5-2.5-6.1-5.7-6.1s-5.7,2.5-5.7,6.1s2.5,6.1,5.7,6.1S550.3,103.1,550.3,99.6z M541.7,95.3h3.2c2,0,3.1,0.7,3.1,2.5
		c0,1.5-0.8,2.2-2.2,2.3l2.3,3.7h-1.6l-2.2-3.7h-1v3.7h-1.6V95.3z M543.3,98.9h1.4c0.9,0,1.7-0.1,1.7-1.3c0-1-0.9-1.2-1.7-1.2h-1.4
		V98.9z"/>
</g>
</svg>
